<svg id="Capa_1" enable-background="new 0 0 511.936 511.936" height="512" viewBox="0 0 511.936 511.936" width="512" xmlns="http://www.w3.org/2000/svg"><g><g><path d="m454.738 504.436h-397.54c-13.652 0-21.444-15.576-13.253-26.49l26.092-34.768c2.209-2.943 2.209-6.99 0-9.934l-26.092-34.768c-8.191-10.914-.398-26.49 13.253-26.49h397.54c13.652 0 21.444 15.576 13.253 26.49l-26.092 34.768c-2.209 2.943-2.209 6.991 0 9.934l26.092 34.768c8.192 10.914.399 26.49-13.253 26.49z" fill="#8ac9fe"/><path d="m441.899 443.178c-2.209-2.943-2.209-6.991 0-9.934l26.093-34.768c8.191-10.914.398-26.49-13.254-26.49h-23c13.652 0 21.444 15.576 13.254 26.49l-26.093 34.768c-2.209 2.943-2.209 6.991 0 9.934l26.093 34.768c8.191 10.914.398 26.49-13.254 26.49h23c13.652 0 21.444-15.576 13.254-26.49z" fill="#60b7ff"/><path d="m377.942 190.938c-6.45-6.918-15.838-9.303-24.314-7.155-.65.165-1.338-.003-1.812-.477-.729-.729-.729-1.911 0-2.64l1.686-1.686c9.769-9.769 10.163-25.768.392-35.535-6.761-6.758-16.445-8.803-24.98-6.141-1.138.355-2.376.056-3.219-.786-.847-.847-1.139-2.091-.783-3.234 2.655-8.532.607-18.213-6.15-24.97-7.043-7.043-17.261-8.97-26.045-5.789-.451.163-.953.062-1.291-.276-.479-.479-.479-1.255 0-1.734l50.364-50.364c9.849-9.849 10.087-26.207.053-35.868-9.727-9.365-25.204-9.252-34.793.336l-103.012 103.012c-2.52 2.52-6.828.735-6.828-2.828v-23.498c0-13.929-11.399-25.664-25.325-25.4-13.5.256-24.364 11.279-24.364 24.84v69.683c0 8.785-3.49 17.211-9.702 23.424l-.635.635c-12.937 12.937-12.937 33.911 0 46.847l70.271 70.271c12.937 12.936 33.911 12.936 46.847 0l6.907-6.907c3.106-3.106 7.319-4.851 11.712-4.851h26.265c8.786 0 17.211-3.49 23.424-9.702l54.29-54.29c9.529-9.531 10.232-25.059 1.042-34.917z" fill="#ffcdbe"/><g><g fill="#ebae9d"><path d="m174.209 91.305v38.068c0 3.564 4.309 5.348 6.828 2.828l16.322-16.322c-.091-.338-.15-.695-.15-1.077v-23.497c0-13.929-11.399-25.664-25.325-25.4-4.017.076-7.797 1.112-11.131 2.878 7.987 4.285 13.456 12.876 13.456 22.522z"/><path d="m238.208 294.698-6.907 6.907c-3.493 3.493-7.575 6.034-11.924 7.641 11.756 4.344 25.48 1.802 34.924-7.641l6.907-6.907c3.106-3.106 7.319-4.851 11.712-4.851h-23c-4.393-.001-8.606 1.744-11.712 4.851z"/><path d="m377.942 190.938c-6.45-6.918-15.838-9.303-24.314-7.155-.65.165-1.338-.003-1.812-.477-.729-.729-.729-1.911 0-2.64l1.687-1.686c9.769-9.769 10.163-25.768.392-35.535-6.761-6.758-16.446-8.803-24.98-6.141-1.138.355-2.376.056-3.219-.786-.847-.847-1.139-2.091-.783-3.234 2.655-8.532.607-18.213-6.15-24.97-7.043-7.043-17.261-8.97-26.045-5.789-.451.163-.953.062-1.291-.276-.479-.479-.479-1.255 0-1.734l50.364-50.364c9.849-9.849 10.087-26.207.053-35.868-7.869-7.576-19.499-8.944-28.732-4.115 2.05 1.07 3.986 2.434 5.732 4.115 10.034 9.661 9.796 26.019-.053 35.868l-50.364 50.364c-.479.479-.479 1.255 0 1.734.339.339.841.44 1.291.276 8.784-3.182 19.002-1.254 26.045 5.789 6.757 6.757 8.806 16.438 6.15 24.97-.356 1.143-.064 2.388.783 3.234.843.843 2.081 1.141 3.219.786 8.534-2.661 18.219-.617 24.98 6.141 9.77 9.767 9.376 25.766-.392 35.535l-1.686 1.686c-.729.729-.729 1.911 0 2.64.474.474 1.162.642 1.812.477 8.476-2.148 17.864.237 24.314 7.155 9.19 9.858 8.488 25.386-1.042 34.916l-54.29 54.29c-6.212 6.212-14.638 9.702-23.424 9.702h23c8.786 0 17.211-3.49 23.424-9.702l54.29-54.29c9.528-9.53 10.231-25.058 1.041-34.916z"/></g></g></g><g><path d="m202.176 306.82c7.92 7.916 18.321 11.873 28.726 11.872 10.401-.001 20.806-3.958 28.725-11.872l6.908-6.903c1.71-1.71 3.986-2.651 6.409-2.651h26.265c10.851 0 21.053-4.223 28.726-11.892l54.318-54.284c6.235-6.231 9.764-14.891 9.68-23.756-.083-8.745-3.538-16.842-9.729-22.798-4.918-4.731-11.009-7.587-17.346-8.575 2.417-4.738 3.702-10.053 3.65-15.443-.083-8.746-3.538-16.844-9.728-22.8-6.972-6.709-16.302-9.642-25.351-8.837.09-.984.135-1.978.135-2.979 0-8.637-3.365-16.756-9.476-22.861-4.507-4.505-10.024-7.399-15.83-8.684l38.858-38.834c6.235-6.231 9.764-14.89 9.68-23.755-.083-8.746-3.538-16.844-9.729-22.8-12.602-12.125-32.92-11.93-45.294.436l-13.828 13.819c-2.93 2.928-2.932 7.677-.003 10.607 2.929 2.931 7.676 2.932 10.607.003l13.828-13.819c6.637-6.631 17.534-6.737 24.29-.236 3.264 3.141 5.086 7.449 5.13 12.133.046 4.862-1.88 9.602-5.284 13.004l-75.732 75.684c-2.93 2.928-2.932 7.677-.003 10.607 1.464 1.466 3.385 2.198 5.305 2.198 1.919 0 3.837-.731 5.302-2.195l17.568-17.557c6.764-6.76 17.768-6.759 24.531.001 3.275 3.272 5.079 7.623 5.079 12.251s-1.804 8.979-5.079 12.253l-5.855 5.851c-2.93 2.928-2.932 7.677-.003 10.607 1.464 1.466 3.385 2.198 5.305 2.198 1.919 0 3.837-.731 5.302-2.195l5.855-5.852c6.639-6.631 17.535-6.738 24.291-.237 3.264 3.141 5.086 7.449 5.13 12.133.046 4.862-1.88 9.602-5.284 13.004l-11.316 11.309-5.855 5.853c-2.93 2.929-2.931 7.677-.003 10.606 1.465 1.466 3.385 2.198 5.305 2.198 1.919 0 3.838-.732 5.302-2.195l5.855-5.853c6.637-6.632 17.533-6.736 24.291-.236 3.264 3.14 5.085 7.448 5.13 12.132.046 4.862-1.88 9.602-5.284 13.004l-54.318 54.284c-4.84 4.837-11.276 7.501-18.122 7.501h-26.265c-6.429 0-12.471 2.501-17.013 7.043l-6.908 6.902c-9.992 9.986-26.251 9.986-36.244 0l-70.271-70.227c-4.839-4.836-7.504-11.266-7.504-18.104 0-6.839 2.665-13.269 7.503-18.104l.636-.636c7.674-7.669 11.9-17.866 11.9-28.714v-69.641c0-9.376 7.629-17.147 17.007-17.325 4.526-.096 8.873 1.675 12.221 4.959 3.471 3.406 5.462 8.117 5.462 12.926v30.026l-10.934 10.928c-2.93 2.928-2.931 7.677-.003 10.606 1.464 1.466 3.385 2.198 5.305 2.198 1.919 0 3.837-.731 5.302-2.195l84.39-84.338c2.93-2.928 2.932-7.677.003-10.606-2.93-2.931-7.679-2.932-10.607-.003l-58.455 58.419v-15.036c0-8.81-3.629-17.424-9.957-23.633-6.245-6.127-14.4-9.422-23.01-9.25-17.492.332-31.722 14.832-31.722 32.323v69.639c0 6.839-2.665 13.269-7.503 18.104l-.636.636c-7.674 7.67-11.9 17.867-11.9 28.714s4.227 21.044 11.9 28.714z"/><path d="m191.488 474.059 4.357-11.433h29.628l4.309 11.411c1.134 3.003 3.987 4.853 7.018 4.853.88 0 1.776-.156 2.648-.485 3.875-1.464 5.83-5.791 4.367-9.666l-24.657-65.295c-.026-.068-.053-.137-.081-.205-1.394-3.388-4.661-5.576-8.325-5.576-.003 0-.005 0-.008 0-3.666.003-6.933 2.197-8.323 5.59-.023.057-.046.114-.068.172l-24.883 65.293c-1.475 3.871.467 8.204 4.337 9.68 3.871 1.475 8.206-.469 9.681-4.339zm19.239-50.483 9.082 24.051h-18.247z"/><path d="m151.317 412.663c4.142 0 7.5-3.357 7.5-7.5 0-4.142-3.358-7.5-7.5-7.5h-27.667c-4.142 0-7.5 3.358-7.5 7.5v65.621c0 4.143 3.358 7.5 7.5 7.5h27.667c4.142 0 7.5-3.357 7.5-7.5 0-4.142-3.358-7.5-7.5-7.5h-20.167v-17.81h18.128c4.142 0 7.5-3.357 7.5-7.5s-3.358-7.5-7.5-7.5h-18.128v-17.811z"/><path d="m293.052 463.759c-6.805 0-13.36-2.75-17.535-7.354-2.782-3.07-7.526-3.302-10.594-.52-3.069 2.782-3.302 7.525-.52 10.594 6.972 7.689 17.681 12.28 28.648 12.28 13.588 0 24.991-8.638 27.114-20.538 1.593-8.923-2.501-20.594-18.766-26.59-8.271-3.049-15.961-6.372-18.18-7.345-2.2-1.695-2.131-4.097-1.988-5.089.188-1.317 1.134-4.532 5.819-5.942 9.784-2.946 18.758 4.193 18.963 4.358 3.17 2.633 7.877 2.211 10.531-.948 2.664-3.172 2.253-7.902-.919-10.567-.613-.514-15.201-12.534-32.899-7.206-8.854 2.666-15.117 9.63-16.344 18.175-1.147 7.997 2.32 15.688 9.051 20.073.331.216.679.405 1.039.565.383.171 9.485 4.22 19.739 8 3.089 1.139 10.168 4.381 9.186 9.88-.714 4.018-5.528 8.174-12.345 8.174z"/><path d="m367.192 478.888h.019c4.134 0 7.49-3.346 7.5-7.481l.077-31.611 19.783-30.371c2.261-3.471 1.28-8.117-2.19-10.378-3.471-2.262-8.118-1.279-10.378 2.191l-14.719 22.597-14.878-22.773c-2.266-3.469-6.915-4.441-10.381-2.176-3.467 2.265-4.441 6.913-2.176 10.381l19.939 30.519-.077 31.585c-.01 4.142 3.339 7.508 7.481 7.517z"/><path d="m473.991 402.977c5.504-7.334 6.376-16.985 2.276-25.188-4.102-8.206-12.352-13.305-21.529-13.305h-335.119c-4.142 0-7.5 3.357-7.5 7.5s3.358 7.5 7.5 7.5h335.119c3.511 0 6.544 1.873 8.112 5.012 1.565 3.132 1.245 6.675-.857 9.477l-26.093 34.769c-4.184 5.575-4.184 13.362 0 18.938l26.093 34.769c2.103 2.802 2.423 6.345.857 9.477-1.568 3.139-4.602 5.012-8.112 5.012h-397.54c-3.511 0-6.543-1.873-8.112-5.012-1.566-3.133-1.246-6.675.857-9.477l26.093-34.769c4.184-5.575 4.184-13.362 0-18.938l-26.093-34.768c-2.103-2.802-2.423-6.344-.857-9.477 1.568-3.139 4.601-5.012 8.112-5.012h27.42c4.142 0 7.5-3.357 7.5-7.5s-3.358-7.5-7.5-7.5h-27.42c-9.178 0-17.427 5.099-21.529 13.306-4.1 8.201-3.227 17.853 2.277 25.187l26.093 34.769c.208.278.208.651 0 .93l-26.093 34.769c-5.504 7.334-6.377 16.985-2.277 25.186 4.102 8.207 12.352 13.306 21.529 13.306h397.54c9.178 0 17.428-5.099 21.529-13.305 4.1-8.202 3.228-17.854-2.276-25.188l-26.093-34.769c-.209-.278-.209-.651 0-.93z"/><path d="m40.602 164.253h33.133c4.142 0 7.5-3.357 7.5-7.5s-3.358-7.5-7.5-7.5h-33.133c-4.142 0-7.5 3.357-7.5 7.5 0 4.142 3.358 7.5 7.5 7.5z"/><path d="m96.621 249.595-28.694 16.557c-3.588 2.07-4.818 6.656-2.748 10.244 1.389 2.407 3.91 3.753 6.503 3.753 1.272 0 2.561-.323 3.742-1.005l28.694-16.557c3.588-2.07 4.818-6.656 2.748-10.244s-6.657-4.819-10.245-2.748z"/><path d="m407.82 262.587 28.694 16.557c1.181.682 2.47 1.005 3.741 1.005 2.593 0 5.114-1.346 6.503-3.753 2.07-3.588.84-8.174-2.748-10.244l-28.694-16.557c-3.59-2.072-8.175-.84-10.244 2.748-2.07 3.587-.84 8.173 2.748 10.244z"/><path d="m430.702 156.753c0 4.143 3.357 7.5 7.5 7.5h33.133c4.143 0 7.5-3.357 7.5-7.5s-3.357-7.5-7.5-7.5h-33.133c-4.143 0-7.5 3.357-7.5 7.5z"/><path d="m411.575 64.916c1.271 0 2.561-.323 3.741-1.005l28.694-16.557c3.588-2.07 4.818-6.656 2.748-10.244s-6.657-4.819-10.244-2.748l-28.694 16.557c-3.588 2.07-4.818 6.656-2.748 10.244 1.389 2.407 3.91 3.753 6.503 3.753z"/><path d="m67.927 47.354 28.694 16.557c1.181.682 2.47 1.005 3.742 1.005 2.592 0 5.114-1.346 6.503-3.753 2.07-3.588.84-8.174-2.748-10.244l-28.695-16.557c-3.588-2.071-8.175-.841-10.245 2.748-2.07 3.588-.839 8.174 2.749 10.244z"/></g></g></svg>