<svg id="_x33_0" enable-background="new 0 0 62 62" height="512" viewBox="0 0 62 62" width="512" xmlns="http://www.w3.org/2000/svg"><g><g><g><path d="m21 49h10c-.68 0-1.35.06-2 .17-5.68.95-10 5.88-10 11.83h-10l6-3-1-2 4-3 1-3.83c.65-.11 1.32-.17 2-.17z" fill="#b4dd7f"/></g><g><path d="m19 49.17-1 3.83-4 3 1 2-6 3c0-5.95 4.32-10.88 10-11.83z" fill="#a0d468"/></g><g><path d="m33 49c1.27.64 2.31 1.62 3 2.8-.64 1.09-1 2.35-1 3.67v5.53h-4-12l6-3-1-2 4-3 1-3.83c.65-.11 1.32-.17 2-.17z" fill="#fcd770"/></g><g><path d="m29 49.17-1 3.83-4 3 1 2-6 3c0-5.95 4.32-10.88 10-11.83z" fill="#ffc729"/></g><g><path d="m39 49h2c.68 0 1.35.06 2 .17v3.83l5 3-1 2 6 3h-12-6v-5.53c0-1.32.36-2.58 1-3.67.7-1.18 1.73-2.16 3-2.8z" fill="#e6e9ed"/></g><g><path d="m53 61-6-3 1-2-5-3v-3.83c2.52.42 4.77 1.62 6.49 3.34 2.17 2.17 3.51 5.17 3.51 8.49z" fill="#ccd1d9"/></g><g><path d="m5.88 23.88-2.05-2.05c-.29-.29-.51-.63-.65-1.01-.12-.31-.18-.65-.18-.99 0-1.56 1.27-2.83 2.83-2.83h12.02c1.15 0 2.26.13 3.33.37-4.71 1.24-8.18 5.53-8.18 10.63 0 .55.45 1 1 1h-6c-.83 0-1.58-.34-2.12-.88s-.88-1.29-.88-2.12.34-1.58.88-2.12z" fill="#b27946"/></g><g><path d="m5 26v1h-1.17c-.78 0-1.49-.32-2-.83s-.83-1.22-.83-2c0-.75.3-1.47.83-2l1.35-1.35c.14.38.36.72.65 1.01l2.05 2.05c-.54.54-.88 1.29-.88 2.12z" fill="#b27946"/></g><g><path d="m17 29.54c-.59-.35-1.27-.54-2-.54h-1c-.55 0-1-.45-1-1 0-5.1 3.47-9.39 8.18-10.63.9-.24 1.84-.37 2.82-.37h5.85c2.12 0 4.12.43 5.95 1.21h.01c.25.28.52.54.8.79-2.27 1.31-4.18 3.19-5.51 5.44-.94 1.58-1.59 3.34-1.89 5.22h-.01c-.63-.42-1.39-.66-2.2-.66h-7c-.83 0-1.58-.34-2.12-.88s-.88-1.29-.88-2.12z" fill="#656d78"/></g><g><path d="m57 19v-4c-1.74 1.16-3.74 1.84-5.82 1.97h-.01c-.55.82-1.23 1.57-2.01 2.23l-2.16 1.8v4c0 1.1-.45 2.1-1.17 2.83-.73.72-1.73 1.17-2.83 1.17-2.21 0-4-1.79-4-4v-4l-2.16-1.8c-.08-.07-.15-.13-.23-.2-2.27 1.31-4.18 3.19-5.51 5.44-.94 1.58-1.59 3.34-1.89 5.22-.14.81-.21 1.63-.21 2.48 0 3.77 1.4 7.4 3.94 10.19l3.06 3.37 3 3.3.88-1.1c1.01-1.26 1.79-2.68 2.32-4.18.52-1.5.8-3.1.8-4.72h-1c-.83 0-1.58-.34-2.12-.88s-.88-1.29-.88-2.12c0-1.66 1.34-3 3-3h1c0-1.92 1.35-3.52 3.15-3.91.27-.06.56-.09.85-.09h7c.83 0 1.58-.34 2.12-.88s.88-1.29.88-2.12v2.66c2.33-.83 4-3.05 4-5.66v-5z" fill="#b27946"/></g><g><path d="m15 29c.73 0 1.41.19 2 .54v2.63c0 1.81-.72 3.55-2 4.83l2 2v4 2c0 2.21 1.79 4 4 4h-12c-2.21 0-4-1.79-4-4v-2-4l-2-2c1.28-1.28 2-3.02 2-4.83v-5.17-1c0 .83.34 1.58.88 2.12s1.29.88 2.12.88h6z" fill="#f0d0b4"/></g><g><path d="m29 32.14c0 3.77 1.4 7.4 3.94 10.19l3.06 3.37-3 3.3h-2-10c-2.21 0-4-1.79-4-4v-2-4l-2-2c1.28-1.28 2-3.02 2-4.83v-2.63-3.54c0 .83.34 1.58.88 2.12s1.29.88 2.12.88h7c.81 0 1.57.24 2.2.66h.01c-.14.81-.21 1.63-.21 2.48z" fill="#f0d0b4"/></g><g><path d="m57 28.66v3.51c0 1.81.72 3.55 2 4.83l-2 2v2h-6c0 1.1.45 2.1 1.17 2.83.73.72 1.73 1.17 2.83 1.17h2c0 2.21-1.79 4-4 4h-12-2l.88-1.1c1.01-1.26 1.79-2.68 2.32-4.18.52-1.5.8-3.1.8-4.72h-1c-.83 0-1.58-.34-2.12-.88s-.88-1.29-.88-2.12c0-1.66 1.34-3 3-3h1c0-1.92 1.35-3.52 3.15-3.91.27-.06.56-.09.85-.09h7c.83 0 1.58-.34 2.12-.88s.88-1.29.88-2.12z" fill="#f0d0b4"/></g><g><path d="m39 25h8c0 1.1-.45 2.1-1.17 2.83-.73.72-1.73 1.17-2.83 1.17-2.21 0-4-1.79-4-4z" fill="#aab2bd"/></g><g><path d="m47 21v4h-8v-4h2 4z" fill="#ccd1d9"/></g><g><path d="m45 21h-4-2l-2.16-1.8c-.08-.07-.15-.13-.23-.2-.28-.25-.55-.51-.8-.79h-.01c-.73-.8-1.34-1.7-1.79-2.68-.66-1.4-1.01-2.95-1.01-4.53 0-2.76 1.12-5.26 2.93-7.07s4.31-2.93 7.07-2.93 5.26 1.12 7.07 2.93 2.93 4.31 2.93 7.07c0 2.15-.65 4.22-1.82 5.97h-.01c-.55.82-1.23 1.57-2.01 2.23l-2.16 1.8z" fill="#ffeaa7"/></g><g><path d="m57 41v4h-2c-1.1 0-2.1-.45-2.83-1.17-.72-.73-1.17-1.73-1.17-2.83z" fill="#ff826e"/></g><g><circle cx="51" cy="35" fill="#d3a06c" r="2"/></g></g><g><path d="m62 23v-6.281l-4 1v-4.587l-1.555 1.036c-1.047.698-2.211 1.187-3.425 1.489.632-1.451.98-3.029.98-4.657 0-6.065-4.935-11-11-11s-11 4.935-11 11c0 1.905.475 3.74 1.33 5.383-1.134-.249-2.294-.384-3.477-.384h-5.853c-.977 0-1.923.131-2.833.352-1.083-.226-2.195-.352-3.313-.352l-12.026.001c-2.11 0-3.828 1.718-3.828 3.828 0 .234.026.464.067.69l-.946.946c-.723.724-1.121 1.685-1.121 2.708 0 2.11 1.718 3.828 3.828 3.828h.172v4.172c0 1.534-.622 3.036-1.707 4.121l-.707.707 2.414 2.414v5.586c0 2.757 2.243 5 5 5h5.104c-3.659 2.303-6.104 6.367-6.104 11v1h46v-1c0-4.633-2.445-8.697-6.104-11h5.104c2.757 0 5-2.243 5-5v-5.586l2.414-2.414-.707-.707c-1.085-1.085-1.707-2.587-1.707-4.121v-2.867c2.414-1.15 4-3.589 4-6.305zm-6-6.281v3.563l4-1v3.718c0 1.599-.766 3.069-2 3.997v-.997c0-2.206-1.794-4-4-4v2c1.103 0 2 .897 2 2s-.897 2-2 2h-7c-.009 0-.018.002-.028.002.636-.838 1.028-1.871 1.028-3.002v-3.531l1.8-1.499c.731-.61 1.368-1.303 1.92-2.052 1.486-.154 2.937-.553 4.28-1.199zm-14.038 23.281c-.202 2.646-1.202 5.199-2.865 7.279l-.145.181-5.273-5.8c-2.372-2.609-3.679-5.989-3.679-9.515 0-4.82 2.484-9.318 6.521-11.909l1.479 1.233v3.531c0 2.757 2.243 5 5 5 .009 0 .017-.003.026-.003-.443.585-.773 1.259-.925 2.003h-.101c-2.206 0-4 1.794-4 4 0 2.192 1.773 3.979 3.962 4zm.038 10.048v3.519l4.691 2.814-1.033 2.066 3.106 1.553h-6.764v-4h-2v4h-4v-4.528c0-2.307 1.252-4.379 3.268-5.472h1.732c.337 0 .67.018 1 .048zm-12 5.952v4h-6.764l3.105-1.553-1.074-2.148 3.612-2.708.918-3.522c.396-.043.797-.069 1.203-.069h1.731c.839.455 1.552 1.092 2.103 1.866-.535 1.101-.834 2.325-.834 3.606v4.528h-2v-4zm-14.732.299 3.612-2.708.918-3.52c.395-.043.795-.071 1.202-.071h3.104c-3.393 2.135-5.73 5.785-6.053 10h-4.814l3.105-1.553zm2.732-11.299v-1h2c2.206 0 4-1.794 4-4h-2c0 1.103-.897 2-2 2h-2v-3.414l-1.632-1.632c1.046-1.361 1.632-3.057 1.632-4.782v-2.728c.591.344 1.268.556 2 .556h7c.389 0 .767.081 1.121.224-.076.634-.121 1.274-.121 1.921 0 4.025 1.491 7.883 4.198 10.861l2.45 2.694-2.091 2.3h-11.557c-1.654 0-3-1.346-3-3zm17.99 5.094c-.426-.493-.902-.94-1.433-1.319l1.443-1.588 1.441 1.585c-.54.385-1.026.83-1.451 1.322zm-12.332 7.459-3.515 1.757c.641-4.128 3.575-7.504 7.464-8.769l-.487 1.868-4.388 3.292zm16.342-35.553h6v2h-6zm3 6c-1.302 0-2.402-.839-2.816-2h5.631c-.413 1.161-1.513 2-2.815 2zm0-26c4.963 0 9 4.037 9 9 0 2.88-1.269 5.589-3.48 7.433l-1.882 1.567h-.638v-9c0-.552.448-1 1-1s1 .448 1 1v1h2v-1c0-1.654-1.346-3-3-3s-3 1.346-3 3v9h-2v-9c0-1.654-1.346-3-3-3s-3 1.346-3 3v1h2v-1c0-.552.448-1 1-1s1 .448 1 1v9h-.638l-1.881-1.567c-2.212-1.844-3.481-4.553-3.481-7.433 0-4.963 4.037-9 9-9zm-13.146 15.999c1.738 0 3.422.326 5.023.935-3.19 2.243-5.446 5.562-6.384 9.296-.481-.149-.982-.23-1.493-.23h-7c-1.103 0-2-.897-2-2s.897-2 2-2v-2c-2.206 0-4 1.794-4 4v2.111c-.328-.067-.662-.111-1-.111h-1c0-5.514 4.486-10 10-10.001zm-24.026.001 11.554-.001c-3.24 2.152-5.382 5.829-5.382 10.001h-4c-1.103 0-2-.897-2-2s.897-2 2-2v-2c-.74 0-1.424.215-2.019.567l-1.446-1.446c-.34-.34-.535-.811-.535-1.293 0-1.008.82-1.828 1.828-1.828zm-2 8c-1.008 0-1.828-.82-1.828-1.828 0-.481.195-.953.535-1.293l.477-.477c.039.043.068.092.109.133l1.446 1.446c-.352.595-.567 1.279-.567 2.019zm2.172 19v-1h2c2.206 0 4-1.794 4-4h-2c0 1.103-.897 2-2 2h-2v-3.414l-1.632-1.632c1.046-1.361 1.632-3.057 1.632-4.782v-2.728c.591.344 1.268.556 2 .556h7c.346 0 .679.08 1 .194v1.978c0 1.534-.622 3.036-1.707 4.121l-.707.707 2.414 2.414v5.586c0 1.13.391 2.162 1.026 3h-8.026c-1.654 0-3-1.346-3-3zm11.606 5.546-.486 1.863-4.388 3.292.926 1.852-3.518 1.759c.64-4.129 3.578-7.5 7.466-8.766zm34.254 8.766-3.518-1.759.967-1.934-5.309-3.185v-2.014c4.084 1.16 7.198 4.624 7.86 8.892zm3.14-15.312c-1.304 0-2.416-.836-2.829-2h3.829v2zm1-5.414v1.414h-6v1c0 2.757 2.243 5 5 5h.816c-.414 1.161-1.514 2-2.816 2h-11.954c1.902-2.604 2.954-5.769 2.954-9v-1h-2c-1.103 0-2-.897-2-2s.897-2 2-2h2v-1c0-1.654 1.346-3 3-3h7c.732 0 1.409-.212 2-.556v2.728c0 1.726.586 3.421 1.632 4.782z"/><path d="m51 32c-1.654 0-3 1.346-3 3s1.346 3 3 3 3-1.346 3-3-1.346-3-3-3zm0 4c-.552 0-1-.448-1-1s.448-1 1-1 1 .448 1 1-.448 1-1 1z"/><path d="m14 32h-2v1c0 .552-.448 1-1 1s-1-.448-1-1v-1h-2v1c0 1.654 1.346 3 3 3s3-1.346 3-3z"/><path d="m24 33c0 .552-.448 1-1 1s-1-.448-1-1v-1h-2v1c0 1.654 1.346 3 3 3s3-1.346 3-3v-1h-2z"/></g></g></svg>